<svg width="100" height="100" viewBox="0 0 100 100" fill="none" xmlns="http://www.w3.org/2000/svg">
<path fill-rule="evenodd" clip-rule="evenodd" d="M36.964 35.9439C34.9401 35.9439 36.0669 33.4853 37.3144 28.2898H36.5614C33.8901 28.2898 31.7163 26.1165 31.7163 23.4441V4.84633C31.7163 2.17503 33.8901 0.000610352 36.5614 0.000610352H65.187C67.8582 0.000610352 70.0333 2.17386 70.0333 4.84633V23.4446C70.0333 26.1159 67.8588 28.2904 65.187 28.2904H49.4351C48.6101 28.5288 37.9759 35.9433 36.9646 35.9433L36.964 35.9439ZM36.562 2.34437C35.1827 2.34437 34.0607 3.46644 34.0607 4.84633V23.4446C34.0607 26.3398 37.1872 25.9472 38.8009 25.9472C39.555 25.9472 40.1158 26.6591 39.9406 27.3927L38.7763 32.2437C40.0783 31.4222 48.3388 25.9478 49.0959 25.9478H65.1875C66.5668 25.9478 67.6889 24.8251 67.6889 23.4452V4.84692C67.6889 3.46762 66.5668 2.34496 65.1875 2.34496H36.562V2.34437Z" fill="black"/>
<path fill-rule="evenodd" clip-rule="evenodd" d="M50.6855 23.6984C48.9992 23.6984 47.6281 22.3273 47.6281 20.6409V17.2032H44.1903C40.1667 17.2026 40.1667 11.0889 44.1903 11.0889L47.6281 11.0884V7.65065C47.6281 3.62641 53.7423 3.627 53.7423 7.65065V11.0884H57.18C61.2049 11.0884 61.2049 17.2026 57.18 17.2026L53.7423 17.2032V20.6409C53.7423 22.3273 52.3701 23.6984 50.6849 23.6984H50.6855ZM44.1903 13.4315C43.254 13.4315 43.254 14.8589 44.1903 14.8589C50.9146 14.8589 49.9718 13.9167 49.9718 20.6403C49.9718 21.5767 51.3986 21.5779 51.3986 20.6403C51.3986 13.9167 50.4564 14.8589 57.18 14.8589C58.1164 14.8589 58.1175 13.4321 57.18 13.4321C50.4564 13.4315 51.3992 14.3743 51.3992 7.65065C51.3992 6.71314 49.9724 6.71431 49.9724 7.65065C49.9724 14.3743 50.9146 13.4315 44.1909 13.4315H44.1903Z" fill="black"/>
<path fill-rule="evenodd" clip-rule="evenodd" d="M30.4665 76.8841H10.8387C9.42774 76.8841 8.2793 75.7362 8.2793 74.3241V46.315C8.2793 44.9041 9.42715 43.7556 10.8387 43.7556H30.4665C31.878 43.7556 33.0259 44.9035 33.0259 46.315V74.3253C33.0259 75.7362 31.878 76.8847 30.4665 76.8847V76.8841ZM10.8387 46.0994C10.7215 46.0994 10.6231 46.1978 10.6231 46.315V74.3253C10.6231 74.4425 10.7215 74.5409 10.8387 74.5409H30.4665C30.5837 74.5409 30.6821 74.4425 30.6821 74.3253V46.315C30.6821 46.1978 30.5837 46.0994 30.4665 46.0994H10.8387Z" fill="black"/>
<path fill-rule="evenodd" clip-rule="evenodd" d="M31.8534 47.4875C30.4981 47.4875 30.2333 45.5357 31.5516 45.183L53.5338 39.2926C55.0273 38.8941 55.6291 41.1582 54.1408 41.5572L31.8534 47.4875Z" fill="black"/>
<path fill-rule="evenodd" clip-rule="evenodd" d="M53.8367 81.3871L31.5505 75.4562C30.0587 75.0577 30.6681 72.7884 32.1569 73.1927L54.1396 79.0831C55.4562 79.4353 55.1926 81.3876 53.8367 81.3876V81.3871Z" fill="black"/>
<path fill-rule="evenodd" clip-rule="evenodd" d="M59.0468 86.7068C55.5271 86.7068 52.6636 83.8433 52.6636 80.3242V40.3156C52.6636 36.7959 55.5271 33.933 59.0462 33.933C62.566 33.933 65.4294 36.7959 65.4294 40.3156V80.3248C65.4294 83.8433 62.5654 86.7062 59.0468 86.7062V86.7068ZM59.0468 36.2767C56.8202 36.2767 55.0079 38.0891 55.0079 40.3156V80.3248C55.0079 85.6486 63.0845 85.6486 63.0845 80.3248V40.3162C63.0845 38.0896 61.274 36.2773 59.0468 36.2773V36.2767Z" fill="black"/>
<path fill-rule="evenodd" clip-rule="evenodd" d="M31.7105 99.9994H20.7106C20.1686 99.9994 19.6975 99.6273 19.5716 99.1011L14.0221 75.987C13.8463 75.2546 14.4088 74.5409 15.1624 74.5409H26.147C26.689 74.5409 27.1601 74.913 27.286 75.4391L32.8835 98.8269C32.8829 99.4744 32.3585 99.9994 31.7111 99.9994H31.7105ZM21.6341 97.6556H30.2081L25.2224 76.8864H16.6477L21.6347 97.6556H21.6341Z" fill="black"/>
<path fill-rule="evenodd" clip-rule="evenodd" d="M64.2576 71.8398C62.7195 71.8398 62.7125 69.506 64.25 69.4954C69.2744 69.4614 73.3614 65.3452 73.3614 60.3208C73.3614 55.2969 69.2744 51.1795 64.25 51.1455C62.709 51.1344 62.7189 48.7965 64.2652 48.8018C70.5729 48.8451 75.7051 54.0125 75.7051 60.3208C75.7051 66.6536 70.5014 71.8398 64.257 71.8398H64.2576Z" fill="black"/>
<path fill-rule="evenodd" clip-rule="evenodd" d="M22.8427 69.3964H9.45166C8.80479 69.3964 8.27979 68.8708 8.27979 68.2245V52.4153C8.27979 51.7684 8.80479 51.2434 9.45166 51.2434H22.8433C23.4902 51.2434 24.0152 51.769 24.0152 52.4153V68.2245C24.014 68.8702 23.4902 69.3964 22.8421 69.3964H22.8427ZM10.6235 67.0521H21.6714V53.5872H10.6235V67.0521Z" fill="black"/>
<path fill-rule="evenodd" clip-rule="evenodd" d="M90.5487 62.2174H85.87C84.3272 62.2174 84.3278 59.8737 85.87 59.8737H90.5487C92.0909 59.8737 92.0909 62.2174 90.5487 62.2174Z" fill="black"/>
<path fill-rule="evenodd" clip-rule="evenodd" d="M87.3507 72.6965C86.729 72.6965 83.463 70.6328 82.7136 70.2003C81.3765 69.4293 82.5507 67.4001 83.8854 68.1712L87.9372 70.5097C88.9743 71.1074 88.5396 72.6965 87.3501 72.6965H87.3507Z" fill="black"/>
<path fill-rule="evenodd" clip-rule="evenodd" d="M79.3456 80.1736C78.9413 80.1736 78.547 79.9632 78.3302 79.5871L75.9917 75.5353C75.2206 74.1994 77.2491 73.0281 78.0208 74.3634L80.3599 78.4152C80.8146 79.2033 80.2339 80.1736 79.3462 80.1736H79.3456Z" fill="black"/>
<path fill-rule="evenodd" clip-rule="evenodd" d="M78.2604 47.5871C77.3721 47.5871 76.7915 46.6179 77.2467 45.8292L79.5852 41.7775C80.3557 40.4421 82.3866 41.6122 81.6149 42.9493L79.2759 47.0011C79.0585 47.3767 78.6647 47.5871 78.2604 47.5871Z" fill="black"/>
<path fill-rule="evenodd" clip-rule="evenodd" d="M84.0273 53.8824C82.839 53.8824 82.4043 52.2933 83.4402 51.6951L87.492 49.3566C88.8267 48.5849 89.9998 50.6146 88.6638 51.3857C87.9174 51.8164 84.6461 53.8824 84.0267 53.8824H84.0273Z" fill="black"/>
</svg>
