<svg width="50" height="50" viewBox="0 0 50 50" fill="none" xmlns="http://www.w3.org/2000/svg">
<path d="M43.8207 35.28C42.7882 37.57 42.2907 38.5925 40.9607 40.6175C39.1057 43.4425 36.4857 46.9625 33.2432 46.9925C30.3632 47.0175 29.6232 45.1175 25.7107 45.14C21.8007 45.16 20.9857 47.0275 18.1032 47C14.8607 46.97 12.3782 43.7925 10.5207 40.965C5.32818 33.065 4.78567 23.79 7.98817 18.8575C10.2632 15.355 13.8557 13.305 17.2307 13.305C20.6682 13.305 22.8307 15.19 25.6707 15.19C28.4282 15.19 30.1082 13.3 34.0832 13.3C37.0832 13.3 40.2682 14.9375 42.5357 17.7625C35.1057 21.835 36.3107 32.445 43.8207 35.28ZM31.0682 10.145C32.5107 8.29 33.6082 5.675 33.2107 3C30.8507 3.1625 28.0932 4.6625 26.4807 6.62C25.0207 8.395 23.8132 11.0275 24.2807 13.5875C26.8557 13.665 29.5207 12.1275 31.0682 10.145Z" fill="white"/>
</svg>
