<svg width="80" height="80" viewBox="0 0 80 80" fill="none" xmlns="http://www.w3.org/2000/svg">
<g clip-path="url(#clip0_162_3)">
<path d="M13.5156 45.0019H11.9922L39.9609 72.9706L62.9297 50.0019H70L39.9609 80.0409L6.17188 46.2909C5.26042 45.3795 4.45312 44.4029 3.75 43.3612C3.04688 42.3196 2.4349 41.1998 1.91406 40.0019H11.4062L22.4609 28.9862L39.9609 46.4472L52.4609 33.9862L58.5156 40.0019H72.3828C73.2161 38.6737 73.8542 37.2675 74.2969 35.7831C74.7396 34.2987 74.9609 32.7753 74.9609 31.2128C74.9609 28.9472 74.5443 26.8378 73.7109 24.8847C72.8776 22.9315 71.7188 21.2388 70.2344 19.8065C68.75 18.3743 67.0312 17.2414 65.0781 16.4081C63.125 15.5748 61.0026 15.1581 58.7109 15.1581C56.5234 15.1581 54.5833 15.4967 52.8906 16.1737C51.1979 16.8508 49.6354 17.7623 48.2031 18.9081C46.7708 20.0539 45.4036 21.317 44.1016 22.6972C42.7995 24.0774 41.4193 25.5227 39.9609 27.0331C38.5547 25.6269 37.1875 24.2076 35.8594 22.7753C34.5312 21.343 33.151 20.0539 31.7188 18.9081C30.2865 17.7623 28.7109 16.8248 26.9922 16.0956C25.2734 15.3664 23.3464 15.0019 21.2109 15.0019C18.9714 15.0019 16.875 15.4185 14.9219 16.2519C12.9688 17.0852 11.25 18.244 9.76562 19.7284C8.28125 21.2128 7.1224 22.9315 6.28906 24.8847C5.45573 26.8378 5.02604 28.9472 5 31.2128C5 32.4368 5.14323 33.6998 5.42969 35.0019H0.3125C0.182292 34.3769 0.104167 33.7519 0.078125 33.1269C0.0520833 32.5019 0.0260417 31.8769 0 31.2519C0 28.3092 0.546875 25.5487 1.64062 22.9706C2.73438 20.3925 4.24479 18.1399 6.17188 16.2128C8.09896 14.2857 10.3516 12.7753 12.9297 11.6815C15.5078 10.5878 18.2682 10.0279 21.2109 10.0019C23.3724 10.0019 25.2995 10.2493 26.9922 10.744C28.6849 11.2388 30.2474 11.9159 31.6797 12.7753C33.112 13.6347 34.4922 14.6894 35.8203 15.9394C37.1484 17.1894 38.5286 18.5305 39.9609 19.9628C41.3932 18.5045 42.7604 17.1633 44.0625 15.9394C45.3646 14.7154 46.7448 13.6737 48.2031 12.8144C49.6615 11.955 51.237 11.2649 52.9297 10.744C54.6224 10.2232 56.5495 9.97582 58.7109 10.0019C61.6276 10.0019 64.375 10.5487 66.9531 11.6425C69.5312 12.7362 71.7708 14.2467 73.6719 16.1737C75.5729 18.1008 77.0833 20.3404 78.2031 22.8925C79.3229 25.4446 79.8828 28.192 79.8828 31.1347C79.8828 33.6607 79.4401 36.1086 78.5547 38.4784C77.6693 40.8482 76.4062 43.0227 74.7656 45.0019H56.4062L52.4609 41.0175L39.9609 53.5565L22.4609 36.0175L13.5156 45.0019Z" fill="#00A9BF"/>
</g>
<defs>
<clipPath id="clip0_162_3">
<rect width="80" height="80" fill="white"/>
</clipPath>
</defs>
</svg>
