<svg width="80" height="77" viewBox="0 0 80 77" fill="none" xmlns="http://www.w3.org/2000/svg">
<g clip-path="url(#clip0_717_591)">
<path fill-rule="evenodd" clip-rule="evenodd" d="M58.2874 68.7719C58.1093 68.8094 57.9264 68.8094 57.7499 68.7719H43.203V74.0188H58.4952V68.7719H58.2874ZM38.1671 11.3297H41.8327C42.5186 11.3297 43.0764 11.8906 43.0764 12.5734V17.2219H47.7249C48.4108 17.2219 48.9686 17.7828 48.9686 18.4656V22.1297C48.9686 22.8141 48.4077 23.3766 47.7249 23.3766H43.0764V27.9172C43.0764 28.6031 42.5155 29.1609 41.8327 29.1609H38.1671C37.4811 29.1609 36.9218 28.6 36.9218 27.9172V23.3766H32.2733C31.5889 23.3766 31.0296 22.8141 31.0296 22.1297V18.4641C31.0296 17.7781 31.5905 17.2203 32.2733 17.2203H36.9218V12.5734C36.9218 11.8875 37.4811 11.3297 38.1671 11.3297ZM39.9311 0C47.2983 4.66875 53.953 6.87813 59.6639 6.35625C60.6608 26.5312 53.2108 38.4453 40.0077 43.4172C27.2577 38.7641 19.7155 27.3609 20.2749 6.05C26.9796 6.40156 33.5577 4.95156 39.9311 0ZM39.9468 2.95625C46.0108 6.80156 52.3686 9.31875 57.0702 8.88906C57.8921 25.5016 50.8811 36.3656 40.0093 40.4594C29.5108 36.6281 22.4233 26.1859 22.8843 8.6375C28.9764 8.95625 35.0952 6.72656 39.9468 2.95625ZM43.2374 66.1125H57.5046C58.653 64.9719 59.9046 63.7875 61.1796 62.5812C63.8561 60.0484 66.6483 57.4062 69.5218 54.0984C72.8046 50.3188 73.1546 49.0094 74.1468 45.3047C74.3343 44.6078 74.5436 43.8266 74.8186 42.8563L76.5218 36.8609L76.5436 36.7922C77.453 34.125 77.5249 32.3625 77.1452 31.3438C77.028 31.0312 76.8764 30.825 76.7046 30.7141C76.5655 30.6234 76.3889 30.5891 76.1968 30.6078C75.7499 30.6516 75.2499 30.9359 74.7936 31.4313L69.7296 43.4937C69.6827 43.6062 69.6202 43.7094 69.5499 43.8016C69.2483 44.3406 68.8452 44.8719 68.3249 45.3703L59.3374 55.3906C58.8499 55.9359 58.0124 55.9813 57.4671 55.4938C56.9233 55.0063 56.8764 54.1688 57.3639 53.6234L66.353 43.6016C66.3889 43.5547 66.4311 43.5109 66.4749 43.4688C67.4046 42.5813 67.6999 41.625 67.5374 40.9312C67.4858 40.7141 67.3921 40.5344 67.2608 40.4125C67.1389 40.2984 66.9733 40.2234 66.7733 40.2016C65.9733 40.1188 64.7905 40.7063 63.353 42.4094L63.3499 42.4078C63.3108 42.4562 63.2671 42.5016 63.2171 42.5438L59.7343 45.6187L59.7171 45.6359C55.9436 49.2016 54.328 50.0484 51.3702 51.5953C50.753 51.9187 50.0718 52.275 49.2358 52.7313C48.9061 52.9109 48.5796 53.1344 48.2593 53.375C47.9186 53.6328 47.5983 53.9016 47.2858 54.1641C45.7264 55.4813 44.9061 56.5484 44.4343 57.7281C43.9468 58.9516 43.7686 60.4437 43.5296 62.4891C43.4327 63.3125 43.3577 64.1312 43.303 64.9406C43.2764 65.3406 43.2546 65.7297 43.2374 66.1125ZM36.7624 66.1125H22.4968C21.3483 64.9719 20.0968 63.7875 18.8218 62.5812C16.1436 60.0484 13.3514 57.4062 10.478 54.0984C7.19676 50.3188 6.8452 49.0094 5.85301 45.3047C5.66551 44.6078 5.45613 43.8266 5.18113 42.8563L3.47801 36.8609L3.45613 36.7922C2.54676 34.125 2.47488 32.3625 2.85457 31.3438C2.97176 31.0312 3.12488 30.825 3.2952 30.7141C3.43426 30.6234 3.61082 30.5891 3.80457 30.6078C4.24988 30.6516 4.74988 30.9359 5.20613 31.4313L10.2702 43.4937C10.3171 43.6062 10.3796 43.7094 10.4514 43.8016C10.7514 44.3406 11.1561 44.8719 11.6764 45.3703L20.6624 55.3906C21.1499 55.9359 21.9874 55.9813 22.5327 55.4938C22.6624 55.3778 22.768 55.2374 22.8435 55.0806C22.9189 54.9238 22.9626 54.7537 22.9722 54.58C22.9818 54.4063 22.957 54.2323 22.8993 54.0682C22.8416 53.9041 22.752 53.7529 22.6358 53.6234L13.6483 43.6016C13.6108 43.5547 13.5686 43.5109 13.5249 43.4688C12.5952 42.5813 12.2999 41.625 12.4624 40.9312C12.5139 40.7141 12.6093 40.5344 12.7389 40.4125C12.8608 40.2984 13.0264 40.2234 13.2264 40.2016C14.0264 40.1188 15.2108 40.7063 16.6468 42.4094L16.6499 42.4078C16.6889 42.4562 16.7343 42.5016 16.7827 42.5438L20.2655 45.6187L20.2843 45.6359C24.0561 49.2016 25.6733 50.0484 28.6311 51.5953C29.2468 51.9187 29.928 52.275 30.7655 52.7313C31.0936 52.9109 31.4202 53.1344 31.7405 53.375C32.0811 53.6328 32.4014 53.9016 32.7139 54.1641C34.2733 55.4813 35.0936 56.5484 35.5655 57.7281C36.0546 58.9516 36.2311 60.4437 36.4702 62.4891C36.5671 63.3125 36.6421 64.1312 36.6968 64.9406C36.7233 65.3406 36.7452 65.7297 36.7624 66.1125ZM21.7124 68.7719C21.8905 68.8094 22.0733 68.8094 22.2499 68.7719H36.7968V74.0188H21.5046V68.7719H21.7124ZM19.1718 66.5687C18.9596 66.8102 18.8429 67.1208 18.8436 67.4422V75.3484C18.8436 76.0828 19.4389 76.6781 20.1749 76.6781H38.1264C38.8608 76.6781 39.4577 76.0828 39.4577 75.3484V67.3688C39.4577 66.5234 39.4014 65.6109 39.3452 64.7656C39.2874 63.9 39.2093 63.0406 39.1093 62.1875C38.8468 59.9516 38.6546 58.3172 38.028 56.7516C37.3858 55.1437 36.3468 53.7578 34.428 52.1375C34.0764 51.8406 33.7155 51.5391 33.3405 51.2563C32.9436 50.9563 32.5155 50.6672 32.0311 50.4047C31.2499 49.9781 30.5202 49.5953 29.8561 49.2484C27.1202 47.8172 25.6233 47.0328 22.1014 43.7031C22.0749 43.6781 22.0452 43.6531 22.0171 43.6297L18.6186 40.6313C16.5436 38.2 14.5124 37.3984 12.953 37.5641H12.9468C12.1874 37.6437 11.5327 37.9406 11.0139 38.3953L7.5827 30.2219L7.57801 30.2234C7.52801 30.1047 7.46082 29.9922 7.37488 29.8891C6.42645 28.75 5.2202 28.0844 4.06395 27.9688C3.27801 27.8922 2.51551 28.0594 1.85145 28.4906C1.21863 28.9016 0.699884 29.5406 0.371759 30.4187C-0.198554 31.9484 -0.186054 34.3219 0.932696 37.6125L2.62488 43.5734C2.8702 44.4359 3.09051 45.2578 3.28582 45.9906C4.39363 50.1266 4.78738 51.5891 8.47488 55.8344C11.3952 59.1984 14.2593 61.9078 17.0014 64.5031C17.7296 65.1906 18.4468 65.8703 19.1718 66.5687ZM60.8296 66.5687C61.0406 66.8107 61.1567 67.1211 61.1561 67.4422V75.3484C61.1561 76.0828 60.5608 76.6781 59.8264 76.6781H41.8733C41.1389 76.6781 40.5421 76.0828 40.5421 75.3484V67.3688C40.5421 67.3219 40.5452 67.2734 40.5499 67.2281C40.5816 65.5434 40.6953 63.8612 40.8905 62.1875C41.153 59.9516 41.3468 58.3172 41.9718 56.7516C42.6139 55.1437 43.653 53.7578 45.5733 52.1375C45.9233 51.8406 46.2843 51.5391 46.6593 51.2563C47.0561 50.9563 47.4858 50.6672 47.9686 50.4047C48.7499 49.9781 49.4796 49.5953 50.1436 49.2484C52.8796 47.8172 54.3764 47.0328 57.8983 43.7031C57.9264 43.6781 57.9546 43.6531 57.9827 43.6297L61.3811 40.6313C63.4561 38.2 65.4874 37.3984 67.0483 37.5641H67.053C67.8124 37.6437 68.4671 37.9406 68.9858 38.3953L72.4186 30.2219L72.4233 30.2234C72.4718 30.1047 72.5389 29.9922 72.6249 29.8891C73.5733 28.75 74.7796 28.0844 75.9358 27.9688C76.7218 27.8922 77.4858 28.0594 78.1483 28.4906C78.7827 28.9016 79.2999 29.5406 79.628 30.4187C80.1999 31.9484 80.1858 34.3219 79.0686 37.6125L77.3749 43.5734C77.1311 44.4359 76.9093 45.2578 76.7139 45.9906C75.6061 50.1266 75.2139 51.5891 71.5264 55.8344C68.6046 59.1984 65.7405 61.9078 62.9983 64.5031C62.2718 65.1906 61.553 65.8703 60.8296 66.5687Z" fill="#00A9BF"/>
</g>
<defs>
<clipPath id="clip0_717_591">
<rect width="80" height="76.6781" fill="white"/>
</clipPath>
</defs>
</svg>
