<svg width="50" height="50" viewBox="0 0 50 50" fill="none" xmlns="http://www.w3.org/2000/svg">
<g clip-path="url(#clip0_666_2401)">
<path d="M37.3408 17.1508C31.5324 13.902 22.2098 8.68531 7.74957 0.588716C6.77466 -0.0551328 5.65298 -0.139508 4.68384 0.18852L29.4935 24.9981L37.3408 17.1508Z" fill="#32BBFF"/>
<path d="M4.68389 0.188477C4.50225 0.25 4.32549 0.324219 4.15645 0.413868C3.08623 0.992775 2.2998 2.10674 2.2998 3.51563V46.4806C2.2998 47.8895 3.08613 49.0034 4.15645 49.5822C4.3252 49.6718 4.50186 49.7463 4.68331 49.8082L29.4935 24.9981L4.68389 0.188477Z" fill="#32BBFF"/>
<path d="M29.4936 24.9982L4.68335 49.8083C5.65279 50.1387 6.77447 50.0608 7.74966 49.4076C21.7729 41.555 30.9905 36.4001 36.8661 33.1238C37.0297 33.0319 37.19 32.942 37.3484 32.8531L29.4936 24.9982Z" fill="#32BBFF"/>
<path d="M2.2998 24.998V46.4805C2.2998 47.8894 3.08613 49.0034 4.15645 49.5822C4.3252 49.6717 4.50186 49.7462 4.68331 49.8082L29.4935 24.998H2.2998Z" fill="#2C9FD9"/>
<path d="M7.74942 0.588786C6.5917 -0.175668 5.22647 -0.153891 4.15625 0.414079L29.1168 25.3747L37.3406 17.1508C31.5323 13.9021 22.2096 8.68538 7.74942 0.588786Z" fill="#29CC5E"/>
<path d="M29.1169 24.6217L4.15625 49.5822C5.22656 50.1501 6.5917 50.1829 7.74942 49.4075C21.7727 41.5549 30.9903 36.4 36.8659 33.1237C37.0295 33.0318 37.1897 32.9419 37.3481 32.853L29.1169 24.6217Z" fill="#D93F21"/>
<path d="M47.7002 24.9981C47.7002 23.8077 47.0995 22.6063 45.909 21.9401C45.909 21.9401 43.6825 20.6978 36.858 16.8806L28.7405 24.9981L36.8659 33.1236C43.6155 29.3339 45.9089 28.056 45.9089 28.056C47.0995 27.3899 47.7002 26.1885 47.7002 24.9981Z" fill="#FFD500"/>
<path d="M45.909 28.0561C47.0995 27.3898 47.7002 26.1885 47.7002 24.998H28.7405L36.8659 33.1236C43.6156 29.3339 45.909 28.0561 45.909 28.0561Z" fill="#FFAA00"/>
</g>
<defs>
<clipPath id="clip0_666_2401">
<rect width="50" height="50" fill="white"/>
</clipPath>
</defs>
</svg>
