<svg width="80" height="67" viewBox="0 0 80 67" fill="none" xmlns="http://www.w3.org/2000/svg">
<g clip-path="url(#clip0_768_579)">
<path fill-rule="evenodd" clip-rule="evenodd" d="M19.4225 58.3023V34.2635H30.2374C34.8212 35.0839 39.405 37.5711 43.9888 40.4555H52.3881C56.1906 40.6834 58.183 44.5379 54.4847 47.0707C51.5417 49.2324 47.6545 49.1087 43.6698 48.7506C40.9221 48.6139 40.8049 52.3056 43.6698 52.3187C44.666 52.3968 45.7468 52.1624 46.6909 52.1624C51.6654 52.1559 55.7543 51.2053 58.2611 47.2791L59.5177 44.3426L72.0125 38.1506C78.2631 36.0931 82.7037 42.6302 78.1003 47.1814C69.0499 53.7641 59.7717 59.1813 50.2785 63.5568C43.3833 67.7499 36.4881 67.6067 29.5993 63.5568L19.4225 58.3023ZM49.5363 5.07432C51.8998 2.60662 53.5536 0.4775 57.1998 0.0607917C64.0364 -0.727048 70.3261 6.27887 66.8752 13.1741C65.8921 15.1404 63.8932 17.4714 61.6794 19.7633C59.2508 22.2766 56.5617 24.7443 54.6735 26.6129L49.5363 31.7111L45.291 27.6222C40.1863 22.7063 31.8587 16.5143 31.5852 8.84423C31.3899 3.47259 35.6351 0.0282363 40.5054 0.0933471C44.8678 0.145436 46.6974 2.31362 49.5363 5.07432ZM0 31.952H16.167V60.718H0V31.952Z" fill="#00A9BF"/>
</g>
<defs>
<clipPath id="clip0_768_579">
<rect width="80" height="66.6481" fill="white"/>
</clipPath>
</defs>
</svg>
