<svg width="50" height="50" viewBox="0 0 50 50" fill="none" xmlns="http://www.w3.org/2000/svg">
<g clip-path="url(#clip0_666_2423)">
<path fill-rule="evenodd" clip-rule="evenodd" d="M50 9.09922C48.1628 9.93586 46.1848 10.5016 44.1099 10.7544C46.2288 9.45434 47.8547 7.39283 48.6206 4.93707C46.6367 6.14087 44.4445 7.01663 42.1025 7.48611C40.236 5.44265 37.5682 4.16663 34.6158 4.16663C28.9546 4.16663 24.3617 8.8765 24.3617 14.6849C24.3617 15.5095 24.4497 16.31 24.6258 17.0804C16.1002 16.6411 8.54317 12.4578 3.48066 6.08669C2.59729 7.64562 2.09249 9.45434 2.09249 11.3804C2.09249 15.028 3.90327 18.2481 6.65611 20.1351C4.97741 20.0839 3.39261 19.6054 2.00739 18.8229V18.9523C2.00739 24.0505 5.54381 28.3029 10.2395 29.2659C9.37958 29.5127 8.47274 29.6361 7.53654 29.6361C6.87621 29.6361 6.23055 29.5729 5.60544 29.4495C6.91142 33.6267 10.6973 36.6693 15.1875 36.7506C11.6775 39.5735 7.25185 41.2558 2.44761 41.2558C1.61999 41.2558 0.801197 41.2077 0 41.1114C4.54012 44.0908 9.93426 45.8333 15.7246 45.8333C34.5953 45.8333 44.9111 29.8076 44.9111 15.9067C44.9111 15.4493 44.9023 14.9918 44.8846 14.5434C46.8891 13.0597 48.6295 11.2089 50 9.09922Z" fill="#00AAEC"/>
</g>
<defs>
<clipPath id="clip0_666_2423">
<rect width="50" height="50" fill="white"/>
</clipPath>
</defs>
</svg>
